<mxfile host="app.diagrams.net" agent="Mozilla/5.0 (Windows NT 10.0; Win64; x64) AppleWebKit/537.36 (KHTML, like Gecko) Chrome/135.0.0.0 Safari/537.36" version="26.2.13">
  <diagram name="Page-1" id="MlCSIARQUA6nrzVP9HyG">
    <mxGraphModel dx="4330" dy="2883" grid="1" gridSize="10" guides="1" tooltips="1" connect="1" arrows="1" fold="1" page="1" pageScale="1" pageWidth="850" pageHeight="1100" math="0" shadow="0">
      <root>
        <mxCell id="0" />
        <mxCell id="1" parent="0" />
        <mxCell id="cpnZcNEpfMSH3JfvFcv5-86" value="" style="edgeStyle=orthogonalEdgeStyle;rounded=0;orthogonalLoop=1;jettySize=auto;html=1;exitX=1;exitY=0.5;exitDx=0;exitDy=0;" parent="1" source="D9jDigD416j0bugAYkW8-2" target="cpnZcNEpfMSH3JfvFcv5-85" edge="1">
          <mxGeometry relative="1" as="geometry">
            <mxPoint x="530" y="-341" as="sourcePoint" />
          </mxGeometry>
        </mxCell>
        <mxCell id="cpnZcNEpfMSH3JfvFcv5-96" value="" style="edgeStyle=orthogonalEdgeStyle;rounded=0;orthogonalLoop=1;jettySize=auto;html=1;exitX=0.5;exitY=1;exitDx=0;exitDy=0;entryX=0.5;entryY=0;entryDx=0;entryDy=0;" parent="1" source="D9jDigD416j0bugAYkW8-27" target="cpnZcNEpfMSH3JfvFcv5-95" edge="1">
          <mxGeometry relative="1" as="geometry">
            <mxPoint x="728.85" y="-61" as="sourcePoint" />
            <mxPoint x="728.85" y="-20" as="targetPoint" />
            <Array as="points" />
          </mxGeometry>
        </mxCell>
        <mxCell id="cpnZcNEpfMSH3JfvFcv5-77" value="" style="edgeStyle=orthogonalEdgeStyle;rounded=0;orthogonalLoop=1;jettySize=auto;html=1;exitX=0.25;exitY=1;exitDx=0;exitDy=0;entryX=0.5;entryY=0;entryDx=0;entryDy=0;" parent="1" source="D9jDigD416j0bugAYkW8-22" target="cpnZcNEpfMSH3JfvFcv5-76" edge="1">
          <mxGeometry relative="1" as="geometry">
            <mxPoint x="-375" y="-290" as="sourcePoint" />
            <Array as="points">
              <mxPoint x="300" y="29" />
            </Array>
          </mxGeometry>
        </mxCell>
        <mxCell id="cpnZcNEpfMSH3JfvFcv5-177" value="" style="edgeStyle=orthogonalEdgeStyle;rounded=0;orthogonalLoop=1;jettySize=auto;html=1;" parent="1" source="cpnZcNEpfMSH3JfvFcv5-41" target="cpnZcNEpfMSH3JfvFcv5-176" edge="1">
          <mxGeometry relative="1" as="geometry" />
        </mxCell>
        <mxCell id="cpnZcNEpfMSH3JfvFcv5-41" value="ADMIN" style="whiteSpace=wrap;html=1;rounded=0;" parent="1" vertex="1">
          <mxGeometry x="395" y="-780" width="120" height="60" as="geometry" />
        </mxCell>
        <mxCell id="cpnZcNEpfMSH3JfvFcv5-43" value="&lt;font size=&quot;3&quot;&gt;Room&amp;nbsp;&lt;/font&gt;" style="rounded=0;whiteSpace=wrap;html=1;" parent="1" vertex="1">
          <mxGeometry x="-270" y="430" width="120" height="70" as="geometry" />
        </mxCell>
        <mxCell id="cpnZcNEpfMSH3JfvFcv5-65" value="" style="edgeStyle=orthogonalEdgeStyle;rounded=0;orthogonalLoop=1;jettySize=auto;html=1;exitX=0.5;exitY=1;exitDx=0;exitDy=0;entryX=0.5;entryY=0;entryDx=0;entryDy=0;" parent="1" source="D9jDigD416j0bugAYkW8-39" target="cpnZcNEpfMSH3JfvFcv5-64" edge="1">
          <mxGeometry relative="1" as="geometry">
            <mxPoint x="195" y="1412.5" as="sourcePoint" />
            <Array as="points">
              <mxPoint x="10" y="370" />
              <mxPoint x="10" y="370" />
            </Array>
          </mxGeometry>
        </mxCell>
        <mxCell id="cpnZcNEpfMSH3JfvFcv5-66" style="edgeStyle=orthogonalEdgeStyle;rounded=0;orthogonalLoop=1;jettySize=auto;html=1;exitX=0;exitY=0.5;exitDx=0;exitDy=0;entryX=1;entryY=0.5;entryDx=0;entryDy=0;" parent="1" source="cpnZcNEpfMSH3JfvFcv5-64" target="cpnZcNEpfMSH3JfvFcv5-43" edge="1">
          <mxGeometry relative="1" as="geometry">
            <mxPoint x="275" y="700" as="targetPoint" />
          </mxGeometry>
        </mxCell>
        <mxCell id="cpnZcNEpfMSH3JfvFcv5-160" value="&lt;span style=&quot;color: rgb(64, 64, 64); font-family: Inter, system-ui, -apple-system, BlinkMacSystemFont, &amp;quot;Segoe UI&amp;quot;, Roboto, &amp;quot;Noto Sans&amp;quot;, Ubuntu, Cantarell, &amp;quot;Helvetica Neue&amp;quot;, Oxygen, &amp;quot;Open Sans&amp;quot;, sans-serif; font-size: 16.002px; text-align: start; text-wrap-mode: wrap;&quot;&gt;N:1&lt;/span&gt;" style="edgeLabel;html=1;align=center;verticalAlign=middle;resizable=0;points=[];" parent="cpnZcNEpfMSH3JfvFcv5-66" vertex="1" connectable="0">
          <mxGeometry x="-0.7632" y="2" relative="1" as="geometry">
            <mxPoint x="-64" y="-2" as="offset" />
          </mxGeometry>
        </mxCell>
        <mxCell id="cpnZcNEpfMSH3JfvFcv5-64" value="&lt;div&gt;&lt;br&gt;&lt;/div&gt;&lt;div&gt;&lt;br&gt;&lt;/div&gt;OCCURS in" style="rhombus;whiteSpace=wrap;html=1;verticalAlign=top;" parent="1" vertex="1">
          <mxGeometry x="-30" y="422.5" width="80" height="85" as="geometry" />
        </mxCell>
        <mxCell id="cpnZcNEpfMSH3JfvFcv5-76" value="books" style="rhombus;whiteSpace=wrap;html=1;" parent="1" vertex="1">
          <mxGeometry x="260" y="80" width="80" height="80" as="geometry" />
        </mxCell>
        <mxCell id="cpnZcNEpfMSH3JfvFcv5-81" style="edgeStyle=orthogonalEdgeStyle;rounded=0;orthogonalLoop=1;jettySize=auto;html=1;exitX=0.5;exitY=1;exitDx=0;exitDy=0;entryX=0.75;entryY=0;entryDx=0;entryDy=0;" parent="1" source="cpnZcNEpfMSH3JfvFcv5-76" target="D9jDigD416j0bugAYkW8-39" edge="1">
          <mxGeometry relative="1" as="geometry">
            <mxPoint x="235" y="100" as="targetPoint" />
            <Array as="points">
              <mxPoint x="300" y="200" />
              <mxPoint x="40" y="200" />
            </Array>
          </mxGeometry>
        </mxCell>
        <mxCell id="cpnZcNEpfMSH3JfvFcv5-150" value="&lt;span style=&quot;color: rgb(64, 64, 64); font-family: Inter, system-ui, -apple-system, BlinkMacSystemFont, &amp;quot;Segoe UI&amp;quot;, Roboto, &amp;quot;Noto Sans&amp;quot;, Ubuntu, Cantarell, &amp;quot;Helvetica Neue&amp;quot;, Oxygen, &amp;quot;Open Sans&amp;quot;, sans-serif; font-size: 16.002px; text-align: start; text-wrap-mode: wrap;&quot;&gt;1&lt;/span&gt;&lt;span style=&quot;color: rgb(64, 64, 64); font-family: Inter, system-ui, -apple-system, BlinkMacSystemFont, &amp;quot;Segoe UI&amp;quot;, Roboto, &amp;quot;Noto Sans&amp;quot;, Ubuntu, Cantarell, &amp;quot;Helvetica Neue&amp;quot;, Oxygen, &amp;quot;Open Sans&amp;quot;, sans-serif; font-size: 16.002px; text-align: start; text-wrap-mode: wrap;&quot;&gt;:N&lt;/span&gt;" style="edgeLabel;html=1;align=center;verticalAlign=middle;resizable=0;points=[];" parent="cpnZcNEpfMSH3JfvFcv5-81" vertex="1" connectable="0">
          <mxGeometry x="-0.848" relative="1" as="geometry">
            <mxPoint y="26" as="offset" />
          </mxGeometry>
        </mxCell>
        <mxCell id="cpnZcNEpfMSH3JfvFcv5-85" value="Submits" style="rhombus;whiteSpace=wrap;html=1;" parent="1" vertex="1">
          <mxGeometry x="670" y="-391" width="80" height="80" as="geometry" />
        </mxCell>
        <mxCell id="cpnZcNEpfMSH3JfvFcv5-90" value="Approves&amp;nbsp;" style="rhombus;whiteSpace=wrap;html=1;rounded=0;" parent="1" vertex="1">
          <mxGeometry x="-530" y="-217" width="80" height="80" as="geometry" />
        </mxCell>
        <mxCell id="cpnZcNEpfMSH3JfvFcv5-92" style="edgeStyle=orthogonalEdgeStyle;rounded=0;orthogonalLoop=1;jettySize=auto;html=1;exitX=0;exitY=0.5;exitDx=0;exitDy=0;entryX=1;entryY=0.5;entryDx=0;entryDy=0;" parent="1" source="cpnZcNEpfMSH3JfvFcv5-90" target="D9jDigD416j0bugAYkW8-61" edge="1">
          <mxGeometry relative="1" as="geometry">
            <mxPoint x="-440" y="20" as="targetPoint" />
          </mxGeometry>
        </mxCell>
        <mxCell id="cpnZcNEpfMSH3JfvFcv5-148" value="&lt;span style=&quot;color: rgb(64, 64, 64); font-family: Inter, system-ui, -apple-system, BlinkMacSystemFont, &amp;quot;Segoe UI&amp;quot;, Roboto, &amp;quot;Noto Sans&amp;quot;, Ubuntu, Cantarell, &amp;quot;Helvetica Neue&amp;quot;, Oxygen, &amp;quot;Open Sans&amp;quot;, sans-serif; font-size: 16.002px; text-align: start; text-wrap-mode: wrap;&quot;&gt;1&lt;/span&gt;&lt;span style=&quot;color: rgb(64, 64, 64); font-family: Inter, system-ui, -apple-system, BlinkMacSystemFont, &amp;quot;Segoe UI&amp;quot;, Roboto, &amp;quot;Noto Sans&amp;quot;, Ubuntu, Cantarell, &amp;quot;Helvetica Neue&amp;quot;, Oxygen, &amp;quot;Open Sans&amp;quot;, sans-serif; font-size: 16.002px; text-align: start; text-wrap-mode: wrap;&quot;&gt;:N&lt;/span&gt;" style="edgeLabel;html=1;align=center;verticalAlign=middle;resizable=0;points=[];" parent="cpnZcNEpfMSH3JfvFcv5-92" vertex="1" connectable="0">
          <mxGeometry x="-0.2047" relative="1" as="geometry">
            <mxPoint as="offset" />
          </mxGeometry>
        </mxCell>
        <mxCell id="cpnZcNEpfMSH3JfvFcv5-95" value="Cleans&amp;nbsp;" style="rhombus;whiteSpace=wrap;html=1;" parent="1" vertex="1">
          <mxGeometry x="689" y="-20" width="80" height="50" as="geometry" />
        </mxCell>
        <mxCell id="cpnZcNEpfMSH3JfvFcv5-98" style="edgeStyle=orthogonalEdgeStyle;rounded=0;orthogonalLoop=1;jettySize=auto;html=1;exitX=1;exitY=0.5;exitDx=0;exitDy=0;entryX=1;entryY=0.5;entryDx=0;entryDy=0;" parent="1" source="cpnZcNEpfMSH3JfvFcv5-85" target="D9jDigD416j0bugAYkW8-84" edge="1">
          <mxGeometry relative="1" as="geometry">
            <mxPoint x="950" y="-341" as="targetPoint" />
          </mxGeometry>
        </mxCell>
        <mxCell id="cpnZcNEpfMSH3JfvFcv5-149" value="&lt;span style=&quot;color: rgb(64, 64, 64); font-family: Inter, system-ui, -apple-system, BlinkMacSystemFont, &amp;quot;Segoe UI&amp;quot;, Roboto, &amp;quot;Noto Sans&amp;quot;, Ubuntu, Cantarell, &amp;quot;Helvetica Neue&amp;quot;, Oxygen, &amp;quot;Open Sans&amp;quot;, sans-serif; font-size: 16.002px; text-align: start; text-wrap-mode: wrap;&quot;&gt;1&lt;/span&gt;&lt;span style=&quot;color: rgb(64, 64, 64); font-family: Inter, system-ui, -apple-system, BlinkMacSystemFont, &amp;quot;Segoe UI&amp;quot;, Roboto, &amp;quot;Noto Sans&amp;quot;, Ubuntu, Cantarell, &amp;quot;Helvetica Neue&amp;quot;, Oxygen, &amp;quot;Open Sans&amp;quot;, sans-serif; font-size: 16.002px; text-align: start; text-wrap-mode: wrap;&quot;&gt;:N&lt;/span&gt;" style="edgeLabel;html=1;align=center;verticalAlign=middle;resizable=0;points=[];" parent="cpnZcNEpfMSH3JfvFcv5-98" vertex="1" connectable="0">
          <mxGeometry x="-0.4689" y="-1" relative="1" as="geometry">
            <mxPoint as="offset" />
          </mxGeometry>
        </mxCell>
        <mxCell id="cpnZcNEpfMSH3JfvFcv5-103" style="edgeStyle=orthogonalEdgeStyle;rounded=0;orthogonalLoop=1;jettySize=auto;html=1;exitX=0.5;exitY=1;exitDx=0;exitDy=0;entryX=0.5;entryY=0;entryDx=0;entryDy=0;" parent="1" source="cpnZcNEpfMSH3JfvFcv5-95" target="D9jDigD416j0bugAYkW8-36" edge="1">
          <mxGeometry relative="1" as="geometry">
            <mxPoint x="715" y="120" as="targetPoint" />
          </mxGeometry>
        </mxCell>
        <mxCell id="cpnZcNEpfMSH3JfvFcv5-147" value="&lt;span style=&quot;color: rgb(64, 64, 64); font-family: Inter, system-ui, -apple-system, BlinkMacSystemFont, &amp;quot;Segoe UI&amp;quot;, Roboto, &amp;quot;Noto Sans&amp;quot;, Ubuntu, Cantarell, &amp;quot;Helvetica Neue&amp;quot;, Oxygen, &amp;quot;Open Sans&amp;quot;, sans-serif; font-size: 16.002px; text-align: start; text-wrap-mode: wrap;&quot;&gt;1&lt;/span&gt;&lt;span style=&quot;color: rgb(64, 64, 64); font-family: Inter, system-ui, -apple-system, BlinkMacSystemFont, &amp;quot;Segoe UI&amp;quot;, Roboto, &amp;quot;Noto Sans&amp;quot;, Ubuntu, Cantarell, &amp;quot;Helvetica Neue&amp;quot;, Oxygen, &amp;quot;Open Sans&amp;quot;, sans-serif; font-size: 16.002px; text-align: start; text-wrap-mode: wrap;&quot;&gt;:N&lt;/span&gt;" style="edgeLabel;html=1;align=center;verticalAlign=middle;resizable=0;points=[];" parent="cpnZcNEpfMSH3JfvFcv5-103" vertex="1" connectable="0">
          <mxGeometry x="-0.4961" relative="1" as="geometry">
            <mxPoint y="12" as="offset" />
          </mxGeometry>
        </mxCell>
        <mxCell id="cpnZcNEpfMSH3JfvFcv5-178" style="edgeStyle=orthogonalEdgeStyle;rounded=0;orthogonalLoop=1;jettySize=auto;html=1;exitX=0.5;exitY=1;exitDx=0;exitDy=0;entryX=0.5;entryY=0;entryDx=0;entryDy=0;" parent="1" source="cpnZcNEpfMSH3JfvFcv5-176" target="D9jDigD416j0bugAYkW8-2" edge="1">
          <mxGeometry relative="1" as="geometry">
            <mxPoint x="454.5" y="-381" as="targetPoint" />
          </mxGeometry>
        </mxCell>
        <mxCell id="cpnZcNEpfMSH3JfvFcv5-179" value="1:N" style="edgeLabel;html=1;align=center;verticalAlign=middle;resizable=0;points=[];" parent="cpnZcNEpfMSH3JfvFcv5-178" vertex="1" connectable="0">
          <mxGeometry x="-0.1708" y="3" relative="1" as="geometry">
            <mxPoint x="-3" y="-1" as="offset" />
          </mxGeometry>
        </mxCell>
        <mxCell id="cpnZcNEpfMSH3JfvFcv5-176" value="Manages&amp;nbsp;" style="rhombus;whiteSpace=wrap;html=1;rounded=0;" parent="1" vertex="1">
          <mxGeometry x="415" y="-560" width="80" height="80" as="geometry" />
        </mxCell>
        <mxCell id="D9jDigD416j0bugAYkW8-1" value="" style="edgeStyle=orthogonalEdgeStyle;rounded=0;orthogonalLoop=1;jettySize=auto;html=1;endArrow=none;startFill=0;" edge="1" parent="1" source="D9jDigD416j0bugAYkW8-2" target="D9jDigD416j0bugAYkW8-12">
          <mxGeometry relative="1" as="geometry" />
        </mxCell>
        <mxCell id="D9jDigD416j0bugAYkW8-2" value="&lt;strong data-end=&quot;1331&quot; data-start=&quot;1315&quot;&gt;User&lt;/strong&gt;" style="rounded=0;whiteSpace=wrap;html=1;fontSize=17;" vertex="1" parent="1">
          <mxGeometry x="395" y="-381" width="120" height="60" as="geometry" />
        </mxCell>
        <mxCell id="D9jDigD416j0bugAYkW8-11" value="" style="edgeStyle=orthogonalEdgeStyle;rounded=0;orthogonalLoop=1;jettySize=auto;html=1;endArrow=none;endFill=0;startArrow=halfCircle;startFill=0;entryX=0.5;entryY=0;entryDx=0;entryDy=0;" edge="1" parent="1" target="D9jDigD416j0bugAYkW8-13">
          <mxGeometry relative="1" as="geometry">
            <mxPoint x="299" y="-231" as="sourcePoint" />
            <mxPoint x="149" y="-192" as="targetPoint" />
            <Array as="points">
              <mxPoint x="289" y="-231" />
              <mxPoint x="149" y="-231" />
            </Array>
          </mxGeometry>
        </mxCell>
        <mxCell id="D9jDigD416j0bugAYkW8-12" value="D" style="ellipse;whiteSpace=wrap;html=1;fontSize=17;rounded=0;" vertex="1" parent="1">
          <mxGeometry x="433" y="-251" width="44" height="40" as="geometry" />
        </mxCell>
        <mxCell id="D9jDigD416j0bugAYkW8-13" value="Professor" style="whiteSpace=wrap;html=1;fontSize=17;rounded=0;" vertex="1" parent="1">
          <mxGeometry x="-80" y="-191" width="120" height="60" as="geometry" />
        </mxCell>
        <mxCell id="D9jDigD416j0bugAYkW8-16" value="" style="edgeStyle=orthogonalEdgeStyle;rounded=0;orthogonalLoop=1;jettySize=auto;html=1;endArrow=none;endFill=0;startArrow=halfCircle;startFill=0;entryX=0.5;entryY=0;entryDx=0;entryDy=0;" edge="1" parent="1" target="D9jDigD416j0bugAYkW8-17">
          <mxGeometry relative="1" as="geometry">
            <mxPoint x="399" y="-151" as="sourcePoint" />
            <mxPoint x="249" y="-111" as="targetPoint" />
            <Array as="points">
              <mxPoint x="159" y="-151" />
            </Array>
          </mxGeometry>
        </mxCell>
        <mxCell id="D9jDigD416j0bugAYkW8-17" value="Student" style="whiteSpace=wrap;html=1;fontSize=17;rounded=0;" vertex="1" parent="1">
          <mxGeometry x="99" y="-121" width="120" height="60" as="geometry" />
        </mxCell>
        <mxCell id="D9jDigD416j0bugAYkW8-20" value="" style="edgeStyle=orthogonalEdgeStyle;rounded=0;orthogonalLoop=1;jettySize=auto;html=1;endArrow=none;endFill=0;startArrow=halfCircle;startFill=0;entryX=0.5;entryY=0;entryDx=0;entryDy=0;" edge="1" parent="1" target="D9jDigD416j0bugAYkW8-22">
          <mxGeometry relative="1" as="geometry">
            <mxPoint x="429" y="-61" as="sourcePoint" />
            <mxPoint x="419" y="-21" as="targetPoint" />
            <Array as="points">
              <mxPoint x="329" y="-61" />
            </Array>
          </mxGeometry>
        </mxCell>
        <mxCell id="D9jDigD416j0bugAYkW8-21" value="" style="edgeStyle=orthogonalEdgeStyle;rounded=0;orthogonalLoop=1;jettySize=auto;html=1;endArrow=none;endFill=0;startArrow=none;startFill=0;exitX=0.5;exitY=1;exitDx=0;exitDy=0;" edge="1" parent="1" source="D9jDigD416j0bugAYkW8-12">
          <mxGeometry relative="1" as="geometry">
            <mxPoint x="625" y="-121" as="sourcePoint" />
            <mxPoint x="419" y="-61" as="targetPoint" />
            <Array as="points">
              <mxPoint x="455" y="-61" />
            </Array>
          </mxGeometry>
        </mxCell>
        <mxCell id="D9jDigD416j0bugAYkW8-22" value="TA" style="whiteSpace=wrap;html=1;fontSize=17;rounded=0;" vertex="1" parent="1">
          <mxGeometry x="269" y="-31" width="120" height="60" as="geometry" />
        </mxCell>
        <mxCell id="D9jDigD416j0bugAYkW8-25" value="Room Services Team" style="whiteSpace=wrap;html=1;fontSize=17;rounded=0;" vertex="1" parent="1">
          <mxGeometry x="827" y="-191" width="120" height="60" as="geometry" />
        </mxCell>
        <mxCell id="D9jDigD416j0bugAYkW8-26" value="" style="edgeStyle=orthogonalEdgeStyle;rounded=0;orthogonalLoop=1;jettySize=auto;html=1;endArrow=none;endFill=0;startArrow=halfCircle;startFill=0;entryX=0.5;entryY=0;entryDx=0;entryDy=0;" edge="1" parent="1" target="D9jDigD416j0bugAYkW8-27">
          <mxGeometry relative="1" as="geometry">
            <mxPoint x="509" y="-151" as="sourcePoint" />
            <mxPoint x="819" y="-111" as="targetPoint" />
            <Array as="points">
              <mxPoint x="729" y="-151" />
            </Array>
          </mxGeometry>
        </mxCell>
        <mxCell id="D9jDigD416j0bugAYkW8-27" value="Cleaning Staff" style="whiteSpace=wrap;html=1;fontSize=17;rounded=0;" vertex="1" parent="1">
          <mxGeometry x="669" y="-121" width="120" height="60" as="geometry" />
        </mxCell>
        <mxCell id="D9jDigD416j0bugAYkW8-28" value="" style="edgeStyle=orthogonalEdgeStyle;rounded=0;orthogonalLoop=1;jettySize=auto;html=1;endArrow=none;endFill=0;startArrow=halfCircle;startFill=0;entryX=0.5;entryY=0;entryDx=0;entryDy=0;" edge="1" parent="1" target="D9jDigD416j0bugAYkW8-29">
          <mxGeometry relative="1" as="geometry">
            <mxPoint x="489" y="-61" as="sourcePoint" />
            <mxPoint x="535" y="-31.000000000000227" as="targetPoint" />
            <Array as="points">
              <mxPoint x="535" y="-61" />
              <mxPoint x="535" y="-30" />
            </Array>
          </mxGeometry>
        </mxCell>
        <mxCell id="D9jDigD416j0bugAYkW8-29" value="Registrar" style="whiteSpace=wrap;html=1;fontSize=17;rounded=0;" vertex="1" parent="1">
          <mxGeometry x="477" y="-30" width="120" height="60" as="geometry" />
        </mxCell>
        <mxCell id="D9jDigD416j0bugAYkW8-30" value="" style="endArrow=none;html=1;rounded=0;entryX=0;entryY=0.5;entryDx=0;entryDy=0;" edge="1" parent="1" target="D9jDigD416j0bugAYkW8-12">
          <mxGeometry width="50" height="50" relative="1" as="geometry">
            <mxPoint x="289" y="-231" as="sourcePoint" />
            <mxPoint x="407" y="-241" as="targetPoint" />
          </mxGeometry>
        </mxCell>
        <mxCell id="D9jDigD416j0bugAYkW8-31" value="" style="endArrow=none;html=1;rounded=0;" edge="1" parent="1">
          <mxGeometry width="50" height="50" relative="1" as="geometry">
            <mxPoint x="385" y="-151" as="sourcePoint" />
            <mxPoint x="455" y="-151" as="targetPoint" />
          </mxGeometry>
        </mxCell>
        <mxCell id="D9jDigD416j0bugAYkW8-32" value="" style="endArrow=none;html=1;rounded=0;" edge="1" parent="1">
          <mxGeometry width="50" height="50" relative="1" as="geometry">
            <mxPoint x="447" y="-61" as="sourcePoint" />
            <mxPoint x="509" y="-61" as="targetPoint" />
          </mxGeometry>
        </mxCell>
        <mxCell id="D9jDigD416j0bugAYkW8-33" value="" style="endArrow=none;html=1;rounded=0;" edge="1" parent="1">
          <mxGeometry width="50" height="50" relative="1" as="geometry">
            <mxPoint x="449" y="-151" as="sourcePoint" />
            <mxPoint x="524" y="-151" as="targetPoint" />
          </mxGeometry>
        </mxCell>
        <mxCell id="D9jDigD416j0bugAYkW8-34" value="" style="edgeStyle=orthogonalEdgeStyle;rounded=0;orthogonalLoop=1;jettySize=auto;html=1;endArrow=none;endFill=0;startArrow=halfCircle;startFill=0;entryX=0.5;entryY=0;entryDx=0;entryDy=0;" edge="1" parent="1" target="D9jDigD416j0bugAYkW8-25">
          <mxGeometry relative="1" as="geometry">
            <mxPoint x="568.9988888888888" y="-231" as="sourcePoint" />
            <mxPoint x="889" y="-201" as="targetPoint" />
            <Array as="points">
              <mxPoint x="887" y="-231" />
            </Array>
          </mxGeometry>
        </mxCell>
        <mxCell id="D9jDigD416j0bugAYkW8-35" value="" style="endArrow=none;html=1;rounded=0;exitX=1;exitY=0.5;exitDx=0;exitDy=0;" edge="1" parent="1" source="D9jDigD416j0bugAYkW8-12">
          <mxGeometry width="50" height="50" relative="1" as="geometry">
            <mxPoint x="477" y="-230.56" as="sourcePoint" />
            <mxPoint x="579" y="-231" as="targetPoint" />
          </mxGeometry>
        </mxCell>
        <mxCell id="D9jDigD416j0bugAYkW8-36" value="Cleaning Requests" style="whiteSpace=wrap;html=1;" vertex="1" parent="1">
          <mxGeometry x="669" y="100" width="120" height="60" as="geometry" />
        </mxCell>
        <mxCell id="D9jDigD416j0bugAYkW8-39" value="Room Booking Request" style="whiteSpace=wrap;html=1;" vertex="1" parent="1">
          <mxGeometry x="-50" y="230" width="120" height="60" as="geometry" />
        </mxCell>
        <mxCell id="D9jDigD416j0bugAYkW8-40" value="" style="edgeStyle=orthogonalEdgeStyle;rounded=0;orthogonalLoop=1;jettySize=auto;html=1;exitX=0.5;exitY=1;exitDx=0;exitDy=0;" edge="1" parent="1" target="D9jDigD416j0bugAYkW8-41" source="D9jDigD416j0bugAYkW8-17">
          <mxGeometry relative="1" as="geometry">
            <mxPoint x="159" y="-11" as="sourcePoint" />
            <Array as="points">
              <mxPoint x="159" y="-30" />
              <mxPoint x="80" y="-30" />
            </Array>
          </mxGeometry>
        </mxCell>
        <mxCell id="D9jDigD416j0bugAYkW8-41" value="books" style="rhombus;whiteSpace=wrap;html=1;" vertex="1" parent="1">
          <mxGeometry x="40" y="40" width="80" height="80" as="geometry" />
        </mxCell>
        <mxCell id="D9jDigD416j0bugAYkW8-42" style="edgeStyle=orthogonalEdgeStyle;rounded=0;orthogonalLoop=1;jettySize=auto;html=1;exitX=0.5;exitY=1;exitDx=0;exitDy=0;entryX=0.5;entryY=0;entryDx=0;entryDy=0;" edge="1" parent="1" source="D9jDigD416j0bugAYkW8-41" target="D9jDigD416j0bugAYkW8-39">
          <mxGeometry relative="1" as="geometry">
            <mxPoint x="270" y="230" as="targetPoint" />
            <Array as="points">
              <mxPoint x="80" y="180" />
              <mxPoint x="10" y="180" />
            </Array>
          </mxGeometry>
        </mxCell>
        <mxCell id="D9jDigD416j0bugAYkW8-43" value="&lt;span style=&quot;color: rgb(64, 64, 64); font-family: Inter, system-ui, -apple-system, BlinkMacSystemFont, &amp;quot;Segoe UI&amp;quot;, Roboto, &amp;quot;Noto Sans&amp;quot;, Ubuntu, Cantarell, &amp;quot;Helvetica Neue&amp;quot;, Oxygen, &amp;quot;Open Sans&amp;quot;, sans-serif; font-size: 16.002px; text-align: start; text-wrap-mode: wrap;&quot;&gt;1&lt;/span&gt;&lt;span style=&quot;color: rgb(64, 64, 64); font-family: Inter, system-ui, -apple-system, BlinkMacSystemFont, &amp;quot;Segoe UI&amp;quot;, Roboto, &amp;quot;Noto Sans&amp;quot;, Ubuntu, Cantarell, &amp;quot;Helvetica Neue&amp;quot;, Oxygen, &amp;quot;Open Sans&amp;quot;, sans-serif; font-size: 16.002px; text-align: start; text-wrap-mode: wrap;&quot;&gt;:N&lt;/span&gt;" style="edgeLabel;html=1;align=center;verticalAlign=middle;resizable=0;points=[];" vertex="1" connectable="0" parent="D9jDigD416j0bugAYkW8-42">
          <mxGeometry x="-0.848" relative="1" as="geometry">
            <mxPoint y="26" as="offset" />
          </mxGeometry>
        </mxCell>
        <mxCell id="D9jDigD416j0bugAYkW8-44" value="" style="edgeStyle=orthogonalEdgeStyle;rounded=0;orthogonalLoop=1;jettySize=auto;html=1;exitX=0.5;exitY=1;exitDx=0;exitDy=0;" edge="1" parent="1" target="D9jDigD416j0bugAYkW8-45" source="D9jDigD416j0bugAYkW8-13">
          <mxGeometry relative="1" as="geometry">
            <mxPoint x="-30" y="-120" as="sourcePoint" />
            <Array as="points">
              <mxPoint x="-20" y="-40" />
              <mxPoint x="-20" y="-40" />
            </Array>
          </mxGeometry>
        </mxCell>
        <mxCell id="D9jDigD416j0bugAYkW8-45" value="books" style="rhombus;whiteSpace=wrap;html=1;" vertex="1" parent="1">
          <mxGeometry x="-60" y="50" width="80" height="80" as="geometry" />
        </mxCell>
        <mxCell id="D9jDigD416j0bugAYkW8-46" style="edgeStyle=orthogonalEdgeStyle;rounded=0;orthogonalLoop=1;jettySize=auto;html=1;exitX=0.5;exitY=1;exitDx=0;exitDy=0;entryX=0.25;entryY=0;entryDx=0;entryDy=0;" edge="1" parent="1" source="D9jDigD416j0bugAYkW8-45" target="D9jDigD416j0bugAYkW8-39">
          <mxGeometry relative="1" as="geometry">
            <mxPoint x="91" y="240" as="targetPoint" />
            <Array as="points">
              <mxPoint x="-20" y="170" />
              <mxPoint x="-20" y="170" />
            </Array>
          </mxGeometry>
        </mxCell>
        <mxCell id="D9jDigD416j0bugAYkW8-47" value="&lt;span style=&quot;color: rgb(64, 64, 64); font-family: Inter, system-ui, -apple-system, BlinkMacSystemFont, &amp;quot;Segoe UI&amp;quot;, Roboto, &amp;quot;Noto Sans&amp;quot;, Ubuntu, Cantarell, &amp;quot;Helvetica Neue&amp;quot;, Oxygen, &amp;quot;Open Sans&amp;quot;, sans-serif; font-size: 16.002px; text-align: start; text-wrap-mode: wrap;&quot;&gt;1&lt;/span&gt;&lt;span style=&quot;color: rgb(64, 64, 64); font-family: Inter, system-ui, -apple-system, BlinkMacSystemFont, &amp;quot;Segoe UI&amp;quot;, Roboto, &amp;quot;Noto Sans&amp;quot;, Ubuntu, Cantarell, &amp;quot;Helvetica Neue&amp;quot;, Oxygen, &amp;quot;Open Sans&amp;quot;, sans-serif; font-size: 16.002px; text-align: start; text-wrap-mode: wrap;&quot;&gt;:N&lt;/span&gt;" style="edgeLabel;html=1;align=center;verticalAlign=middle;resizable=0;points=[];" vertex="1" connectable="0" parent="D9jDigD416j0bugAYkW8-46">
          <mxGeometry x="-0.848" relative="1" as="geometry">
            <mxPoint y="26" as="offset" />
          </mxGeometry>
        </mxCell>
        <mxCell id="D9jDigD416j0bugAYkW8-53" value="Approves&amp;nbsp;" style="rhombus;whiteSpace=wrap;html=1;rounded=0;" vertex="1" parent="1">
          <mxGeometry x="730" y="220" width="80" height="80" as="geometry" />
        </mxCell>
        <mxCell id="D9jDigD416j0bugAYkW8-54" style="edgeStyle=orthogonalEdgeStyle;rounded=0;orthogonalLoop=1;jettySize=auto;html=1;entryX=1;entryY=0.5;entryDx=0;entryDy=0;exitX=0;exitY=0.5;exitDx=0;exitDy=0;" edge="1" parent="1" source="D9jDigD416j0bugAYkW8-53" target="D9jDigD416j0bugAYkW8-39">
          <mxGeometry relative="1" as="geometry">
            <mxPoint x="499" y="175" as="targetPoint" />
            <mxPoint x="710" y="280" as="sourcePoint" />
            <Array as="points" />
          </mxGeometry>
        </mxCell>
        <mxCell id="D9jDigD416j0bugAYkW8-55" value="&lt;span style=&quot;color: rgb(64, 64, 64); font-family: Inter, system-ui, -apple-system, BlinkMacSystemFont, &amp;quot;Segoe UI&amp;quot;, Roboto, &amp;quot;Noto Sans&amp;quot;, Ubuntu, Cantarell, &amp;quot;Helvetica Neue&amp;quot;, Oxygen, &amp;quot;Open Sans&amp;quot;, sans-serif; font-size: 16.002px; text-align: start; text-wrap-mode: wrap;&quot;&gt;1&lt;/span&gt;&lt;span style=&quot;color: rgb(64, 64, 64); font-family: Inter, system-ui, -apple-system, BlinkMacSystemFont, &amp;quot;Segoe UI&amp;quot;, Roboto, &amp;quot;Noto Sans&amp;quot;, Ubuntu, Cantarell, &amp;quot;Helvetica Neue&amp;quot;, Oxygen, &amp;quot;Open Sans&amp;quot;, sans-serif; font-size: 16.002px; text-align: start; text-wrap-mode: wrap;&quot;&gt;:N&lt;/span&gt;" style="edgeLabel;html=1;align=center;verticalAlign=middle;resizable=0;points=[];" vertex="1" connectable="0" parent="D9jDigD416j0bugAYkW8-54">
          <mxGeometry x="-0.2047" relative="1" as="geometry">
            <mxPoint as="offset" />
          </mxGeometry>
        </mxCell>
        <mxCell id="D9jDigD416j0bugAYkW8-56" value="" style="edgeStyle=orthogonalEdgeStyle;rounded=0;orthogonalLoop=1;jettySize=auto;html=1;exitX=0;exitY=0.75;exitDx=0;exitDy=0;" edge="1" parent="1" target="D9jDigD416j0bugAYkW8-60" source="D9jDigD416j0bugAYkW8-13">
          <mxGeometry relative="1" as="geometry">
            <mxPoint x="-130" y="120" as="sourcePoint" />
          </mxGeometry>
        </mxCell>
        <mxCell id="D9jDigD416j0bugAYkW8-57" value="&lt;font size=&quot;3&quot;&gt;course&amp;nbsp;&lt;/font&gt;" style="rounded=0;whiteSpace=wrap;html=1;" vertex="1" parent="1">
          <mxGeometry x="-460" y="130" width="120" height="70" as="geometry" />
        </mxCell>
        <mxCell id="D9jDigD416j0bugAYkW8-58" style="edgeStyle=orthogonalEdgeStyle;rounded=0;orthogonalLoop=1;jettySize=auto;html=1;entryX=0.5;entryY=0;entryDx=0;entryDy=0;exitX=0.5;exitY=1;exitDx=0;exitDy=0;" edge="1" parent="1" source="D9jDigD416j0bugAYkW8-60" target="D9jDigD416j0bugAYkW8-57">
          <mxGeometry relative="1" as="geometry" />
        </mxCell>
        <mxCell id="D9jDigD416j0bugAYkW8-59" value="&lt;span style=&quot;color: rgb(64, 64, 64); font-family: Inter, system-ui, -apple-system, BlinkMacSystemFont, &amp;quot;Segoe UI&amp;quot;, Roboto, &amp;quot;Noto Sans&amp;quot;, Ubuntu, Cantarell, &amp;quot;Helvetica Neue&amp;quot;, Oxygen, &amp;quot;Open Sans&amp;quot;, sans-serif; font-size: 16.002px; text-align: start; text-wrap-mode: wrap;&quot;&gt;1&lt;/span&gt;&lt;span style=&quot;color: rgb(64, 64, 64); font-family: Inter, system-ui, -apple-system, BlinkMacSystemFont, &amp;quot;Segoe UI&amp;quot;, Roboto, &amp;quot;Noto Sans&amp;quot;, Ubuntu, Cantarell, &amp;quot;Helvetica Neue&amp;quot;, Oxygen, &amp;quot;Open Sans&amp;quot;, sans-serif; font-size: 16.002px; text-align: start; text-wrap-mode: wrap;&quot;&gt;:N&lt;/span&gt;" style="edgeLabel;html=1;align=center;verticalAlign=middle;resizable=0;points=[];" vertex="1" connectable="0" parent="D9jDigD416j0bugAYkW8-58">
          <mxGeometry x="-0.3273" y="-1" relative="1" as="geometry">
            <mxPoint as="offset" />
          </mxGeometry>
        </mxCell>
        <mxCell id="D9jDigD416j0bugAYkW8-60" value="&amp;nbsp;Coordinates&amp;nbsp;" style="rhombus;whiteSpace=wrap;html=1;rounded=0;" vertex="1" parent="1">
          <mxGeometry x="-440" y="-100" width="80" height="80" as="geometry" />
        </mxCell>
        <mxCell id="D9jDigD416j0bugAYkW8-61" value="Clinic Booking Request" style="rounded=0;whiteSpace=wrap;html=1;" vertex="1" parent="1">
          <mxGeometry x="-740" y="-212" width="120" height="70" as="geometry" />
        </mxCell>
        <mxCell id="D9jDigD416j0bugAYkW8-63" value="" style="edgeStyle=orthogonalEdgeStyle;rounded=0;orthogonalLoop=1;jettySize=auto;html=1;exitX=0;exitY=0.25;exitDx=0;exitDy=0;entryX=0.5;entryY=0;entryDx=0;entryDy=0;" edge="1" parent="1" target="D9jDigD416j0bugAYkW8-64">
          <mxGeometry relative="1" as="geometry">
            <mxPoint x="99" y="-106" as="sourcePoint" />
            <Array as="points">
              <mxPoint x="-300" y="-106" />
            </Array>
          </mxGeometry>
        </mxCell>
        <mxCell id="D9jDigD416j0bugAYkW8-64" value="JTA in" style="rhombus;whiteSpace=wrap;html=1;rounded=0;" vertex="1" parent="1">
          <mxGeometry x="-340" y="-31" width="80" height="80" as="geometry" />
        </mxCell>
        <mxCell id="D9jDigD416j0bugAYkW8-65" style="edgeStyle=orthogonalEdgeStyle;rounded=0;orthogonalLoop=1;jettySize=auto;html=1;exitX=0.5;exitY=1;exitDx=0;exitDy=0;entryX=1;entryY=0.25;entryDx=0;entryDy=0;" edge="1" parent="1" source="D9jDigD416j0bugAYkW8-64" target="D9jDigD416j0bugAYkW8-57">
          <mxGeometry relative="1" as="geometry">
            <mxPoint x="-117" y="111" as="targetPoint" />
          </mxGeometry>
        </mxCell>
        <mxCell id="D9jDigD416j0bugAYkW8-66" value="&lt;span style=&quot;color: rgb(64, 64, 64); font-family: Inter, system-ui, -apple-system, BlinkMacSystemFont, &amp;quot;Segoe UI&amp;quot;, Roboto, &amp;quot;Noto Sans&amp;quot;, Ubuntu, Cantarell, &amp;quot;Helvetica Neue&amp;quot;, Oxygen, &amp;quot;Open Sans&amp;quot;, sans-serif; font-size: 16.002px; text-align: start; text-wrap-mode: wrap;&quot;&gt;1&lt;/span&gt;&lt;span style=&quot;color: rgb(64, 64, 64); font-family: Inter, system-ui, -apple-system, BlinkMacSystemFont, &amp;quot;Segoe UI&amp;quot;, Roboto, &amp;quot;Noto Sans&amp;quot;, Ubuntu, Cantarell, &amp;quot;Helvetica Neue&amp;quot;, Oxygen, &amp;quot;Open Sans&amp;quot;, sans-serif; font-size: 16.002px; text-align: start; text-wrap-mode: wrap;&quot;&gt;:N&lt;/span&gt;" style="edgeLabel;html=1;align=center;verticalAlign=middle;resizable=0;points=[];" vertex="1" connectable="0" parent="D9jDigD416j0bugAYkW8-65">
          <mxGeometry x="-0.2047" relative="1" as="geometry">
            <mxPoint as="offset" />
          </mxGeometry>
        </mxCell>
        <mxCell id="D9jDigD416j0bugAYkW8-67" value="" style="edgeStyle=orthogonalEdgeStyle;rounded=0;orthogonalLoop=1;jettySize=auto;html=1;exitX=0;exitY=0.25;exitDx=0;exitDy=0;entryX=1;entryY=0.5;entryDx=0;entryDy=0;" edge="1" parent="1" source="D9jDigD416j0bugAYkW8-13" target="cpnZcNEpfMSH3JfvFcv5-90">
          <mxGeometry relative="1" as="geometry">
            <mxPoint x="-77" y="-180" as="sourcePoint" />
            <mxPoint x="-450" y="-176" as="targetPoint" />
          </mxGeometry>
        </mxCell>
        <mxCell id="D9jDigD416j0bugAYkW8-68" value="" style="edgeStyle=orthogonalEdgeStyle;rounded=0;orthogonalLoop=1;jettySize=auto;html=1;exitX=0;exitY=0.75;exitDx=0;exitDy=0;entryX=0.5;entryY=0;entryDx=0;entryDy=0;" edge="1" parent="1" target="D9jDigD416j0bugAYkW8-69">
          <mxGeometry relative="1" as="geometry">
            <mxPoint x="98.93" y="-76" as="sourcePoint" />
            <Array as="points">
              <mxPoint x="98.93" y="-80" />
              <mxPoint x="-200.07" y="-80" />
            </Array>
          </mxGeometry>
        </mxCell>
        <mxCell id="D9jDigD416j0bugAYkW8-69" value="Enrols in" style="rhombus;whiteSpace=wrap;html=1;rounded=0;" vertex="1" parent="1">
          <mxGeometry x="-240.07" y="-5" width="80" height="80" as="geometry" />
        </mxCell>
        <mxCell id="D9jDigD416j0bugAYkW8-70" style="edgeStyle=orthogonalEdgeStyle;rounded=0;orthogonalLoop=1;jettySize=auto;html=1;exitX=0.5;exitY=1;exitDx=0;exitDy=0;entryX=1;entryY=0.5;entryDx=0;entryDy=0;" edge="1" parent="1" source="D9jDigD416j0bugAYkW8-69" target="D9jDigD416j0bugAYkW8-57">
          <mxGeometry relative="1" as="geometry">
            <mxPoint x="-240.07" y="174" as="targetPoint" />
          </mxGeometry>
        </mxCell>
        <mxCell id="D9jDigD416j0bugAYkW8-71" value="&lt;span style=&quot;color: rgb(64, 64, 64); font-family: Inter, system-ui, -apple-system, BlinkMacSystemFont, &amp;quot;Segoe UI&amp;quot;, Roboto, &amp;quot;Noto Sans&amp;quot;, Ubuntu, Cantarell, &amp;quot;Helvetica Neue&amp;quot;, Oxygen, &amp;quot;Open Sans&amp;quot;, sans-serif; font-size: 16.002px; text-align: start; text-wrap-mode: wrap;&quot;&gt;1&lt;/span&gt;&lt;span style=&quot;color: rgb(64, 64, 64); font-family: Inter, system-ui, -apple-system, BlinkMacSystemFont, &amp;quot;Segoe UI&amp;quot;, Roboto, &amp;quot;Noto Sans&amp;quot;, Ubuntu, Cantarell, &amp;quot;Helvetica Neue&amp;quot;, Oxygen, &amp;quot;Open Sans&amp;quot;, sans-serif; font-size: 16.002px; text-align: start; text-wrap-mode: wrap;&quot;&gt;:N&lt;/span&gt;" style="edgeLabel;html=1;align=center;verticalAlign=middle;resizable=0;points=[];" vertex="1" connectable="0" parent="D9jDigD416j0bugAYkW8-70">
          <mxGeometry x="-0.2047" relative="1" as="geometry">
            <mxPoint as="offset" />
          </mxGeometry>
        </mxCell>
        <mxCell id="D9jDigD416j0bugAYkW8-72" value="" style="edgeStyle=orthogonalEdgeStyle;rounded=0;orthogonalLoop=1;jettySize=auto;html=1;exitX=0;exitY=0.5;exitDx=0;exitDy=0;entryX=0.5;entryY=0;entryDx=0;entryDy=0;" edge="1" parent="1" target="D9jDigD416j0bugAYkW8-73" source="D9jDigD416j0bugAYkW8-22">
          <mxGeometry relative="1" as="geometry">
            <mxPoint x="269" as="sourcePoint" />
            <Array as="points">
              <mxPoint x="-130" />
            </Array>
          </mxGeometry>
        </mxCell>
        <mxCell id="D9jDigD416j0bugAYkW8-73" value="Teaches in" style="rhombus;whiteSpace=wrap;html=1;rounded=0;" vertex="1" parent="1">
          <mxGeometry x="-170" y="75" width="80" height="80" as="geometry" />
        </mxCell>
        <mxCell id="D9jDigD416j0bugAYkW8-74" style="edgeStyle=orthogonalEdgeStyle;rounded=0;orthogonalLoop=1;jettySize=auto;html=1;exitX=0.5;exitY=1;exitDx=0;exitDy=0;entryX=1;entryY=0.75;entryDx=0;entryDy=0;" edge="1" parent="1" source="D9jDigD416j0bugAYkW8-73" target="D9jDigD416j0bugAYkW8-57">
          <mxGeometry relative="1" as="geometry">
            <mxPoint x="-170" y="254" as="targetPoint" />
          </mxGeometry>
        </mxCell>
        <mxCell id="D9jDigD416j0bugAYkW8-75" value="&lt;span style=&quot;color: rgb(64, 64, 64); font-family: Inter, system-ui, -apple-system, BlinkMacSystemFont, &amp;quot;Segoe UI&amp;quot;, Roboto, &amp;quot;Noto Sans&amp;quot;, Ubuntu, Cantarell, &amp;quot;Helvetica Neue&amp;quot;, Oxygen, &amp;quot;Open Sans&amp;quot;, sans-serif; font-size: 16.002px; text-align: start; text-wrap-mode: wrap;&quot;&gt;1&lt;/span&gt;&lt;span style=&quot;color: rgb(64, 64, 64); font-family: Inter, system-ui, -apple-system, BlinkMacSystemFont, &amp;quot;Segoe UI&amp;quot;, Roboto, &amp;quot;Noto Sans&amp;quot;, Ubuntu, Cantarell, &amp;quot;Helvetica Neue&amp;quot;, Oxygen, &amp;quot;Open Sans&amp;quot;, sans-serif; font-size: 16.002px; text-align: start; text-wrap-mode: wrap;&quot;&gt;:N&lt;/span&gt;" style="edgeLabel;html=1;align=center;verticalAlign=middle;resizable=0;points=[];" vertex="1" connectable="0" parent="D9jDigD416j0bugAYkW8-74">
          <mxGeometry x="-0.2047" relative="1" as="geometry">
            <mxPoint as="offset" />
          </mxGeometry>
        </mxCell>
        <mxCell id="D9jDigD416j0bugAYkW8-76" value="" style="edgeStyle=orthogonalEdgeStyle;rounded=0;orthogonalLoop=1;jettySize=auto;html=1;exitX=0.5;exitY=1;exitDx=0;exitDy=0;" edge="1" parent="1" target="D9jDigD416j0bugAYkW8-79" source="D9jDigD416j0bugAYkW8-29">
          <mxGeometry relative="1" as="geometry">
            <mxPoint x="517" y="29.999999999999773" as="sourcePoint" />
            <Array as="points">
              <mxPoint x="537" y="80" />
              <mxPoint x="537" y="80" />
            </Array>
          </mxGeometry>
        </mxCell>
        <mxCell id="D9jDigD416j0bugAYkW8-77" style="edgeStyle=orthogonalEdgeStyle;rounded=0;orthogonalLoop=1;jettySize=auto;html=1;exitX=0.5;exitY=1;exitDx=0;exitDy=0;entryX=0.75;entryY=1;entryDx=0;entryDy=0;" edge="1" parent="1" source="D9jDigD416j0bugAYkW8-79" target="D9jDigD416j0bugAYkW8-57">
          <mxGeometry relative="1" as="geometry">
            <Array as="points">
              <mxPoint x="537" y="320" />
              <mxPoint x="-370" y="320" />
            </Array>
            <mxPoint x="-690" y="600" as="targetPoint" />
          </mxGeometry>
        </mxCell>
        <mxCell id="D9jDigD416j0bugAYkW8-78" value="&lt;span style=&quot;color: rgb(64, 64, 64); font-family: Inter, system-ui, -apple-system, BlinkMacSystemFont, &amp;quot;Segoe UI&amp;quot;, Roboto, &amp;quot;Noto Sans&amp;quot;, Ubuntu, Cantarell, &amp;quot;Helvetica Neue&amp;quot;, Oxygen, &amp;quot;Open Sans&amp;quot;, sans-serif; font-size: 16.002px; text-align: start; text-wrap-mode: wrap;&quot;&gt;1&lt;/span&gt;&lt;span style=&quot;color: rgb(64, 64, 64); font-family: Inter, system-ui, -apple-system, BlinkMacSystemFont, &amp;quot;Segoe UI&amp;quot;, Roboto, &amp;quot;Noto Sans&amp;quot;, Ubuntu, Cantarell, &amp;quot;Helvetica Neue&amp;quot;, Oxygen, &amp;quot;Open Sans&amp;quot;, sans-serif; font-size: 16.002px; text-align: start; text-wrap-mode: wrap;&quot;&gt;:N&lt;/span&gt;" style="edgeLabel;html=1;align=center;verticalAlign=middle;resizable=0;points=[];" vertex="1" connectable="0" parent="D9jDigD416j0bugAYkW8-77">
          <mxGeometry x="-0.9116" y="-4" relative="1" as="geometry">
            <mxPoint x="4" y="-28" as="offset" />
          </mxGeometry>
        </mxCell>
        <mxCell id="D9jDigD416j0bugAYkW8-79" value="&lt;strong style=&quot;color: rgb(64, 64, 64); font-family: Inter, system-ui, -apple-system, BlinkMacSystemFont, &amp;quot;Segoe UI&amp;quot;, Roboto, &amp;quot;Noto Sans&amp;quot;, Ubuntu, Cantarell, &amp;quot;Helvetica Neue&amp;quot;, Oxygen, &amp;quot;Open Sans&amp;quot;, sans-serif; font-size: 16.002px; text-align: start;&quot;&gt;CREATES&lt;/strong&gt;" style="rhombus;whiteSpace=wrap;html=1;" vertex="1" parent="1">
          <mxGeometry x="497" y="110" width="80" height="80" as="geometry" />
        </mxCell>
        <mxCell id="D9jDigD416j0bugAYkW8-80" value="" style="edgeStyle=orthogonalEdgeStyle;rounded=0;orthogonalLoop=1;jettySize=auto;html=1;exitX=0.25;exitY=1;exitDx=0;exitDy=0;" edge="1" parent="1" target="D9jDigD416j0bugAYkW8-83" source="D9jDigD416j0bugAYkW8-57">
          <mxGeometry relative="1" as="geometry">
            <mxPoint x="-425" y="247.5" as="sourcePoint" />
          </mxGeometry>
        </mxCell>
        <mxCell id="D9jDigD416j0bugAYkW8-81" style="edgeStyle=orthogonalEdgeStyle;rounded=0;orthogonalLoop=1;jettySize=auto;html=1;exitX=0.5;exitY=1;exitDx=0;exitDy=0;entryX=0;entryY=0.5;entryDx=0;entryDy=0;" edge="1" parent="1" source="D9jDigD416j0bugAYkW8-83" target="cpnZcNEpfMSH3JfvFcv5-43">
          <mxGeometry relative="1" as="geometry">
            <Array as="points">
              <mxPoint x="-430" y="465" />
            </Array>
            <mxPoint x="-70" y="460" as="targetPoint" />
          </mxGeometry>
        </mxCell>
        <mxCell id="D9jDigD416j0bugAYkW8-82" value="&lt;span style=&quot;color: rgb(64, 64, 64); font-family: Inter, system-ui, -apple-system, BlinkMacSystemFont, &amp;quot;Segoe UI&amp;quot;, Roboto, &amp;quot;Noto Sans&amp;quot;, Ubuntu, Cantarell, &amp;quot;Helvetica Neue&amp;quot;, Oxygen, &amp;quot;Open Sans&amp;quot;, sans-serif; font-size: 16.002px; text-align: start; text-wrap-mode: wrap;&quot;&gt;N&lt;/span&gt;&lt;span style=&quot;color: rgb(64, 64, 64); font-family: Inter, system-ui, -apple-system, BlinkMacSystemFont, &amp;quot;Segoe UI&amp;quot;, Roboto, &amp;quot;Noto Sans&amp;quot;, Ubuntu, Cantarell, &amp;quot;Helvetica Neue&amp;quot;, Oxygen, &amp;quot;Open Sans&amp;quot;, sans-serif; font-size: 16.002px; text-align: start; text-wrap-mode: wrap;&quot;&gt;:M&lt;/span&gt;" style="edgeLabel;html=1;align=center;verticalAlign=middle;resizable=0;points=[];" vertex="1" connectable="0" parent="D9jDigD416j0bugAYkW8-81">
          <mxGeometry x="-0.852" y="2" relative="1" as="geometry">
            <mxPoint as="offset" />
          </mxGeometry>
        </mxCell>
        <mxCell id="D9jDigD416j0bugAYkW8-83" value="&lt;strong style=&quot;color: rgb(64, 64, 64); font-family: Inter, system-ui, -apple-system, BlinkMacSystemFont, &amp;quot;Segoe UI&amp;quot;, Roboto, &amp;quot;Noto Sans&amp;quot;, Ubuntu, Cantarell, &amp;quot;Helvetica Neue&amp;quot;, Oxygen, &amp;quot;Open Sans&amp;quot;, sans-serif; font-size: 16.002px; text-align: start;&quot;&gt;SCHEDULED_IN&lt;/strong&gt;" style="rhombus;whiteSpace=wrap;html=1;rounded=0;" vertex="1" parent="1">
          <mxGeometry x="-505" y="350" width="150" height="80" as="geometry" />
        </mxCell>
        <mxCell id="D9jDigD416j0bugAYkW8-84" value="Reports" style="whiteSpace=wrap;html=1;" vertex="1" parent="1">
          <mxGeometry x="1100" y="-5" width="120" height="60" as="geometry" />
        </mxCell>
        <mxCell id="D9jDigD416j0bugAYkW8-85" value="" style="edgeStyle=orthogonalEdgeStyle;rounded=0;orthogonalLoop=1;jettySize=auto;html=1;exitX=1;exitY=0.5;exitDx=0;exitDy=0;" edge="1" parent="1" target="D9jDigD416j0bugAYkW8-86" source="D9jDigD416j0bugAYkW8-25">
          <mxGeometry relative="1" as="geometry">
            <mxPoint x="863.9999999999995" y="-131" as="sourcePoint" />
            <Array as="points">
              <mxPoint x="980" y="-161" />
              <mxPoint x="980" y="-161" />
            </Array>
          </mxGeometry>
        </mxCell>
        <mxCell id="D9jDigD416j0bugAYkW8-86" value="Handles" style="rhombus;whiteSpace=wrap;html=1;" vertex="1" parent="1">
          <mxGeometry x="1120" y="-201" width="80" height="80" as="geometry" />
        </mxCell>
        <mxCell id="D9jDigD416j0bugAYkW8-87" style="edgeStyle=orthogonalEdgeStyle;rounded=0;orthogonalLoop=1;jettySize=auto;html=1;exitX=0.5;exitY=1;exitDx=0;exitDy=0;entryX=0.5;entryY=0;entryDx=0;entryDy=0;" edge="1" parent="1" source="D9jDigD416j0bugAYkW8-86" target="D9jDigD416j0bugAYkW8-84">
          <mxGeometry relative="1" as="geometry">
            <mxPoint x="903.9999999999995" y="85" as="targetPoint" />
          </mxGeometry>
        </mxCell>
        <mxCell id="D9jDigD416j0bugAYkW8-88" value="&lt;span style=&quot;color: rgb(64, 64, 64); font-family: Inter, system-ui, -apple-system, BlinkMacSystemFont, &amp;quot;Segoe UI&amp;quot;, Roboto, &amp;quot;Noto Sans&amp;quot;, Ubuntu, Cantarell, &amp;quot;Helvetica Neue&amp;quot;, Oxygen, &amp;quot;Open Sans&amp;quot;, sans-serif; font-size: 16.002px; text-align: start; text-wrap-mode: wrap;&quot;&gt;1&lt;/span&gt;&lt;span style=&quot;color: rgb(64, 64, 64); font-family: Inter, system-ui, -apple-system, BlinkMacSystemFont, &amp;quot;Segoe UI&amp;quot;, Roboto, &amp;quot;Noto Sans&amp;quot;, Ubuntu, Cantarell, &amp;quot;Helvetica Neue&amp;quot;, Oxygen, &amp;quot;Open Sans&amp;quot;, sans-serif; font-size: 16.002px; text-align: start; text-wrap-mode: wrap;&quot;&gt;:N&lt;/span&gt;" style="edgeLabel;html=1;align=center;verticalAlign=middle;resizable=0;points=[];" vertex="1" connectable="0" parent="D9jDigD416j0bugAYkW8-87">
          <mxGeometry x="-0.2091" y="3" relative="1" as="geometry">
            <mxPoint as="offset" />
          </mxGeometry>
        </mxCell>
        <mxCell id="D9jDigD416j0bugAYkW8-91" value="" style="edgeStyle=orthogonalEdgeStyle;rounded=0;orthogonalLoop=1;jettySize=auto;html=1;exitX=0.25;exitY=1;exitDx=0;exitDy=0;entryX=1;entryY=0.5;entryDx=0;entryDy=0;" edge="1" parent="1" target="D9jDigD416j0bugAYkW8-53" source="D9jDigD416j0bugAYkW8-25">
          <mxGeometry relative="1" as="geometry">
            <mxPoint x="888.5" y="-131" as="sourcePoint" />
            <Array as="points">
              <mxPoint x="857" y="260" />
            </Array>
            <mxPoint x="888.5333333333333" y="-50.96666666666647" as="targetPoint" />
          </mxGeometry>
        </mxCell>
        <mxCell id="D9jDigD416j0bugAYkW8-97" value="Becomes" style="rhombus;whiteSpace=wrap;html=1;rounded=0;" vertex="1" parent="1">
          <mxGeometry x="-750" y="130" width="80" height="80" as="geometry" />
        </mxCell>
        <mxCell id="D9jDigD416j0bugAYkW8-98" style="edgeStyle=orthogonalEdgeStyle;rounded=0;orthogonalLoop=1;jettySize=auto;html=1;exitX=0.5;exitY=1;exitDx=0;exitDy=0;entryX=0;entryY=0.75;entryDx=0;entryDy=0;" edge="1" parent="1" source="D9jDigD416j0bugAYkW8-97" target="D9jDigD416j0bugAYkW8-39">
          <mxGeometry relative="1" as="geometry">
            <mxPoint x="-1070" y="180" as="targetPoint" />
          </mxGeometry>
        </mxCell>
        <mxCell id="D9jDigD416j0bugAYkW8-99" value="&lt;span style=&quot;color: rgb(64, 64, 64); font-family: Inter, system-ui, -apple-system, BlinkMacSystemFont, &amp;quot;Segoe UI&amp;quot;, Roboto, &amp;quot;Noto Sans&amp;quot;, Ubuntu, Cantarell, &amp;quot;Helvetica Neue&amp;quot;, Oxygen, &amp;quot;Open Sans&amp;quot;, sans-serif; font-size: 16.002px; text-align: start; text-wrap-mode: wrap;&quot;&gt;1&lt;/span&gt;&lt;span style=&quot;color: rgb(64, 64, 64); font-family: Inter, system-ui, -apple-system, BlinkMacSystemFont, &amp;quot;Segoe UI&amp;quot;, Roboto, &amp;quot;Noto Sans&amp;quot;, Ubuntu, Cantarell, &amp;quot;Helvetica Neue&amp;quot;, Oxygen, &amp;quot;Open Sans&amp;quot;, sans-serif; font-size: 16.002px; text-align: start; text-wrap-mode: wrap;&quot;&gt;:1&lt;/span&gt;" style="edgeLabel;html=1;align=center;verticalAlign=middle;resizable=0;points=[];" vertex="1" connectable="0" parent="D9jDigD416j0bugAYkW8-98">
          <mxGeometry x="-0.2047" relative="1" as="geometry">
            <mxPoint as="offset" />
          </mxGeometry>
        </mxCell>
        <mxCell id="D9jDigD416j0bugAYkW8-100" value="" style="edgeStyle=orthogonalEdgeStyle;rounded=0;orthogonalLoop=1;jettySize=auto;html=1;exitX=0.25;exitY=1;exitDx=0;exitDy=0;entryX=0.5;entryY=0;entryDx=0;entryDy=0;" edge="1" parent="1" target="D9jDigD416j0bugAYkW8-97" source="D9jDigD416j0bugAYkW8-61">
          <mxGeometry relative="1" as="geometry">
            <mxPoint x="-610" y="-72" as="sourcePoint" />
            <mxPoint x="-900" y="181" as="targetPoint" />
          </mxGeometry>
        </mxCell>
        <mxCell id="D9jDigD416j0bugAYkW8-101" value="" style="edgeStyle=orthogonalEdgeStyle;rounded=0;orthogonalLoop=1;jettySize=auto;html=1;exitX=1;exitY=0.75;exitDx=0;exitDy=0;entryX=0.5;entryY=0;entryDx=0;entryDy=0;" edge="1" parent="1" target="D9jDigD416j0bugAYkW8-102" source="D9jDigD416j0bugAYkW8-27">
          <mxGeometry relative="1" as="geometry">
            <mxPoint x="1020" y="160" as="sourcePoint" />
            <mxPoint x="1019.85" y="201" as="targetPoint" />
            <Array as="points">
              <mxPoint x="940" y="-76" />
            </Array>
          </mxGeometry>
        </mxCell>
        <mxCell id="D9jDigD416j0bugAYkW8-102" value="Makes" style="rhombus;whiteSpace=wrap;html=1;" vertex="1" parent="1">
          <mxGeometry x="900" y="140" width="80" height="50" as="geometry" />
        </mxCell>
        <mxCell id="D9jDigD416j0bugAYkW8-103" style="edgeStyle=orthogonalEdgeStyle;rounded=0;orthogonalLoop=1;jettySize=auto;html=1;exitX=0.5;exitY=1;exitDx=0;exitDy=0;entryX=0;entryY=0.5;entryDx=0;entryDy=0;" edge="1" parent="1" source="D9jDigD416j0bugAYkW8-102" target="D9jDigD416j0bugAYkW8-105">
          <mxGeometry relative="1" as="geometry">
            <mxPoint x="1006" y="341" as="targetPoint" />
            <Array as="points">
              <mxPoint x="940" y="310" />
            </Array>
          </mxGeometry>
        </mxCell>
        <mxCell id="D9jDigD416j0bugAYkW8-104" value="&lt;span style=&quot;color: rgb(64, 64, 64); font-family: Inter, system-ui, -apple-system, BlinkMacSystemFont, &amp;quot;Segoe UI&amp;quot;, Roboto, &amp;quot;Noto Sans&amp;quot;, Ubuntu, Cantarell, &amp;quot;Helvetica Neue&amp;quot;, Oxygen, &amp;quot;Open Sans&amp;quot;, sans-serif; font-size: 16.002px; text-align: start; text-wrap-mode: wrap;&quot;&gt;1&lt;/span&gt;&lt;span style=&quot;color: rgb(64, 64, 64); font-family: Inter, system-ui, -apple-system, BlinkMacSystemFont, &amp;quot;Segoe UI&amp;quot;, Roboto, &amp;quot;Noto Sans&amp;quot;, Ubuntu, Cantarell, &amp;quot;Helvetica Neue&amp;quot;, Oxygen, &amp;quot;Open Sans&amp;quot;, sans-serif; font-size: 16.002px; text-align: start; text-wrap-mode: wrap;&quot;&gt;:N&lt;/span&gt;" style="edgeLabel;html=1;align=center;verticalAlign=middle;resizable=0;points=[];" vertex="1" connectable="0" parent="D9jDigD416j0bugAYkW8-103">
          <mxGeometry x="-0.4961" relative="1" as="geometry">
            <mxPoint y="12" as="offset" />
          </mxGeometry>
        </mxCell>
        <mxCell id="D9jDigD416j0bugAYkW8-105" value="Cleaning Supp. Requests" style="whiteSpace=wrap;html=1;" vertex="1" parent="1">
          <mxGeometry x="991" y="280" width="120" height="60" as="geometry" />
        </mxCell>
        <mxCell id="D9jDigD416j0bugAYkW8-107" value="" style="edgeStyle=orthogonalEdgeStyle;rounded=0;orthogonalLoop=1;jettySize=auto;html=1;exitX=0.75;exitY=1;exitDx=0;exitDy=0;entryX=0.5;entryY=0;entryDx=0;entryDy=0;" edge="1" parent="1" target="D9jDigD416j0bugAYkW8-108" source="D9jDigD416j0bugAYkW8-25">
          <mxGeometry relative="1" as="geometry">
            <mxPoint x="900" y="-113" as="sourcePoint" />
            <mxPoint x="1130.85" y="164" as="targetPoint" />
            <Array as="points">
              <mxPoint x="917" y="-113" />
              <mxPoint x="1051" y="-113" />
            </Array>
          </mxGeometry>
        </mxCell>
        <mxCell id="D9jDigD416j0bugAYkW8-108" value="Handes" style="rhombus;whiteSpace=wrap;html=1;" vertex="1" parent="1">
          <mxGeometry x="1011" y="103" width="80" height="50" as="geometry" />
        </mxCell>
        <mxCell id="D9jDigD416j0bugAYkW8-109" style="edgeStyle=orthogonalEdgeStyle;rounded=0;orthogonalLoop=1;jettySize=auto;html=1;exitX=0.5;exitY=1;exitDx=0;exitDy=0;entryX=0.5;entryY=0;entryDx=0;entryDy=0;" edge="1" parent="1" source="D9jDigD416j0bugAYkW8-108" target="D9jDigD416j0bugAYkW8-105">
          <mxGeometry relative="1" as="geometry">
            <mxPoint x="1211" y="273" as="targetPoint" />
            <Array as="points" />
          </mxGeometry>
        </mxCell>
        <mxCell id="D9jDigD416j0bugAYkW8-110" value="&lt;span style=&quot;color: rgb(64, 64, 64); font-family: Inter, system-ui, -apple-system, BlinkMacSystemFont, &amp;quot;Segoe UI&amp;quot;, Roboto, &amp;quot;Noto Sans&amp;quot;, Ubuntu, Cantarell, &amp;quot;Helvetica Neue&amp;quot;, Oxygen, &amp;quot;Open Sans&amp;quot;, sans-serif; font-size: 16.002px; text-align: start; text-wrap-mode: wrap;&quot;&gt;1&lt;/span&gt;&lt;span style=&quot;color: rgb(64, 64, 64); font-family: Inter, system-ui, -apple-system, BlinkMacSystemFont, &amp;quot;Segoe UI&amp;quot;, Roboto, &amp;quot;Noto Sans&amp;quot;, Ubuntu, Cantarell, &amp;quot;Helvetica Neue&amp;quot;, Oxygen, &amp;quot;Open Sans&amp;quot;, sans-serif; font-size: 16.002px; text-align: start; text-wrap-mode: wrap;&quot;&gt;:N&lt;/span&gt;" style="edgeLabel;html=1;align=center;verticalAlign=middle;resizable=0;points=[];" vertex="1" connectable="0" parent="D9jDigD416j0bugAYkW8-109">
          <mxGeometry x="-0.4961" relative="1" as="geometry">
            <mxPoint y="12" as="offset" />
          </mxGeometry>
        </mxCell>
        <mxCell id="D9jDigD416j0bugAYkW8-111" value="Clinic/&amp;nbsp;&lt;div&gt;Course&lt;/div&gt;" style="rhombus;whiteSpace=wrap;html=1;rounded=0;" vertex="1" parent="1">
          <mxGeometry x="-690" y="-50" width="80" height="80" as="geometry" />
        </mxCell>
        <mxCell id="D9jDigD416j0bugAYkW8-112" style="edgeStyle=orthogonalEdgeStyle;rounded=0;orthogonalLoop=1;jettySize=auto;html=1;exitX=0.5;exitY=1;exitDx=0;exitDy=0;entryX=0;entryY=0.5;entryDx=0;entryDy=0;" edge="1" parent="1" source="D9jDigD416j0bugAYkW8-111" target="D9jDigD416j0bugAYkW8-57">
          <mxGeometry relative="1" as="geometry">
            <mxPoint x="310" y="86" as="targetPoint" />
          </mxGeometry>
        </mxCell>
        <mxCell id="D9jDigD416j0bugAYkW8-113" value="&lt;span style=&quot;color: rgb(64, 64, 64); font-family: Inter, system-ui, -apple-system, BlinkMacSystemFont, &amp;quot;Segoe UI&amp;quot;, Roboto, &amp;quot;Noto Sans&amp;quot;, Ubuntu, Cantarell, &amp;quot;Helvetica Neue&amp;quot;, Oxygen, &amp;quot;Open Sans&amp;quot;, sans-serif; font-size: 16.002px; text-align: start; text-wrap-mode: wrap;&quot;&gt;1&lt;/span&gt;&lt;span style=&quot;color: rgb(64, 64, 64); font-family: Inter, system-ui, -apple-system, BlinkMacSystemFont, &amp;quot;Segoe UI&amp;quot;, Roboto, &amp;quot;Noto Sans&amp;quot;, Ubuntu, Cantarell, &amp;quot;Helvetica Neue&amp;quot;, Oxygen, &amp;quot;Open Sans&amp;quot;, sans-serif; font-size: 16.002px; text-align: start; text-wrap-mode: wrap;&quot;&gt;:N&lt;/span&gt;" style="edgeLabel;html=1;align=center;verticalAlign=middle;resizable=0;points=[];" vertex="1" connectable="0" parent="D9jDigD416j0bugAYkW8-112">
          <mxGeometry x="-0.2047" relative="1" as="geometry">
            <mxPoint as="offset" />
          </mxGeometry>
        </mxCell>
        <mxCell id="D9jDigD416j0bugAYkW8-114" value="" style="edgeStyle=orthogonalEdgeStyle;rounded=0;orthogonalLoop=1;jettySize=auto;html=1;exitX=0.75;exitY=1;exitDx=0;exitDy=0;entryX=0.5;entryY=0;entryDx=0;entryDy=0;" edge="1" parent="1" target="D9jDigD416j0bugAYkW8-111" source="D9jDigD416j0bugAYkW8-61">
          <mxGeometry relative="1" as="geometry">
            <mxPoint x="-640" y="-321" as="sourcePoint" />
            <mxPoint x="-860" y="2" as="targetPoint" />
          </mxGeometry>
        </mxCell>
        <mxCell id="D9jDigD416j0bugAYkW8-115" value="Makes" style="rhombus;whiteSpace=wrap;html=1;rounded=0;" vertex="1" parent="1">
          <mxGeometry x="-140" y="-350" width="80" height="80" as="geometry" />
        </mxCell>
        <mxCell id="D9jDigD416j0bugAYkW8-116" style="edgeStyle=orthogonalEdgeStyle;rounded=0;orthogonalLoop=1;jettySize=auto;html=1;exitX=0;exitY=0.5;exitDx=0;exitDy=0;entryX=0.5;entryY=0;entryDx=0;entryDy=0;" edge="1" parent="1" source="D9jDigD416j0bugAYkW8-115" target="D9jDigD416j0bugAYkW8-61">
          <mxGeometry relative="1" as="geometry">
            <mxPoint x="150" y="-311" as="targetPoint" />
          </mxGeometry>
        </mxCell>
        <mxCell id="D9jDigD416j0bugAYkW8-117" value="&lt;span style=&quot;color: rgb(64, 64, 64); font-family: Inter, system-ui, -apple-system, BlinkMacSystemFont, &amp;quot;Segoe UI&amp;quot;, Roboto, &amp;quot;Noto Sans&amp;quot;, Ubuntu, Cantarell, &amp;quot;Helvetica Neue&amp;quot;, Oxygen, &amp;quot;Open Sans&amp;quot;, sans-serif; font-size: 16.002px; text-align: start; text-wrap-mode: wrap;&quot;&gt;1&lt;/span&gt;&lt;span style=&quot;color: rgb(64, 64, 64); font-family: Inter, system-ui, -apple-system, BlinkMacSystemFont, &amp;quot;Segoe UI&amp;quot;, Roboto, &amp;quot;Noto Sans&amp;quot;, Ubuntu, Cantarell, &amp;quot;Helvetica Neue&amp;quot;, Oxygen, &amp;quot;Open Sans&amp;quot;, sans-serif; font-size: 16.002px; text-align: start; text-wrap-mode: wrap;&quot;&gt;:N&lt;/span&gt;" style="edgeLabel;html=1;align=center;verticalAlign=middle;resizable=0;points=[];" vertex="1" connectable="0" parent="D9jDigD416j0bugAYkW8-116">
          <mxGeometry x="-0.2047" relative="1" as="geometry">
            <mxPoint as="offset" />
          </mxGeometry>
        </mxCell>
        <mxCell id="D9jDigD416j0bugAYkW8-118" value="" style="edgeStyle=orthogonalEdgeStyle;rounded=0;orthogonalLoop=1;jettySize=auto;html=1;exitX=0.25;exitY=0;exitDx=0;exitDy=0;entryX=1;entryY=0.5;entryDx=0;entryDy=0;" edge="1" parent="1" target="D9jDigD416j0bugAYkW8-115" source="D9jDigD416j0bugAYkW8-17">
          <mxGeometry relative="1" as="geometry">
            <mxPoint x="-800" y="-718" as="sourcePoint" />
            <mxPoint x="-1020" y="-395" as="targetPoint" />
          </mxGeometry>
        </mxCell>
        <mxCell id="D9jDigD416j0bugAYkW8-119" value="Room Change Request" style="whiteSpace=wrap;html=1;fontSize=17;rounded=0;" vertex="1" parent="1">
          <mxGeometry x="169" y="-660" width="120" height="60" as="geometry" />
        </mxCell>
        <mxCell id="D9jDigD416j0bugAYkW8-121" value="" style="edgeStyle=orthogonalEdgeStyle;rounded=0;orthogonalLoop=1;jettySize=auto;html=1;exitX=0.25;exitY=0;exitDx=0;exitDy=0;entryX=0.5;entryY=1;entryDx=0;entryDy=0;" edge="1" parent="1" source="D9jDigD416j0bugAYkW8-13" target="D9jDigD416j0bugAYkW8-122">
          <mxGeometry relative="1" as="geometry">
            <mxPoint x="299" y="-361" as="sourcePoint" />
            <mxPoint x="110" y="-550" as="targetPoint" />
            <Array as="points">
              <mxPoint x="-47" y="-260" />
              <mxPoint x="10" y="-260" />
              <mxPoint x="10" y="-490" />
            </Array>
          </mxGeometry>
        </mxCell>
        <mxCell id="D9jDigD416j0bugAYkW8-122" value="Makes" style="rhombus;whiteSpace=wrap;html=1;rounded=0;" vertex="1" parent="1">
          <mxGeometry x="-30" y="-570" width="80" height="80" as="geometry" />
        </mxCell>
        <mxCell id="D9jDigD416j0bugAYkW8-123" style="edgeStyle=orthogonalEdgeStyle;rounded=0;orthogonalLoop=1;jettySize=auto;html=1;exitX=0.5;exitY=0;exitDx=0;exitDy=0;entryX=0;entryY=0.5;entryDx=0;entryDy=0;" edge="1" parent="1" source="D9jDigD416j0bugAYkW8-122" target="D9jDigD416j0bugAYkW8-119">
          <mxGeometry relative="1" as="geometry">
            <mxPoint x="-321" y="-520" as="targetPoint" />
            <mxPoint x="219" y="-618" as="sourcePoint" />
          </mxGeometry>
        </mxCell>
        <mxCell id="D9jDigD416j0bugAYkW8-124" value="&lt;span style=&quot;color: rgb(64, 64, 64); font-family: Inter, system-ui, -apple-system, BlinkMacSystemFont, &amp;quot;Segoe UI&amp;quot;, Roboto, &amp;quot;Noto Sans&amp;quot;, Ubuntu, Cantarell, &amp;quot;Helvetica Neue&amp;quot;, Oxygen, &amp;quot;Open Sans&amp;quot;, sans-serif; font-size: 16.002px; text-align: start; text-wrap-mode: wrap;&quot;&gt;1&lt;/span&gt;&lt;span style=&quot;color: rgb(64, 64, 64); font-family: Inter, system-ui, -apple-system, BlinkMacSystemFont, &amp;quot;Segoe UI&amp;quot;, Roboto, &amp;quot;Noto Sans&amp;quot;, Ubuntu, Cantarell, &amp;quot;Helvetica Neue&amp;quot;, Oxygen, &amp;quot;Open Sans&amp;quot;, sans-serif; font-size: 16.002px; text-align: start; text-wrap-mode: wrap;&quot;&gt;:N&lt;/span&gt;" style="edgeLabel;html=1;align=center;verticalAlign=middle;resizable=0;points=[];" vertex="1" connectable="0" parent="D9jDigD416j0bugAYkW8-123">
          <mxGeometry x="-0.2047" relative="1" as="geometry">
            <mxPoint as="offset" />
          </mxGeometry>
        </mxCell>
        <mxCell id="D9jDigD416j0bugAYkW8-125" value="" style="edgeStyle=orthogonalEdgeStyle;rounded=0;orthogonalLoop=1;jettySize=auto;html=1;exitX=0.25;exitY=0;exitDx=0;exitDy=0;entryX=0.5;entryY=1;entryDx=0;entryDy=0;" edge="1" parent="1" target="D9jDigD416j0bugAYkW8-126" source="D9jDigD416j0bugAYkW8-22">
          <mxGeometry relative="1" as="geometry">
            <mxPoint x="30" y="-131" as="sourcePoint" />
            <mxPoint x="187" y="-490" as="targetPoint" />
            <Array as="points">
              <mxPoint x="299" y="-200" />
              <mxPoint x="230" y="-200" />
              <mxPoint x="230" y="-430" />
            </Array>
          </mxGeometry>
        </mxCell>
        <mxCell id="D9jDigD416j0bugAYkW8-126" value="Makes" style="rhombus;whiteSpace=wrap;html=1;rounded=0;" vertex="1" parent="1">
          <mxGeometry x="189" y="-510" width="80" height="80" as="geometry" />
        </mxCell>
        <mxCell id="D9jDigD416j0bugAYkW8-127" style="edgeStyle=orthogonalEdgeStyle;rounded=0;orthogonalLoop=1;jettySize=auto;html=1;exitX=0.5;exitY=0;exitDx=0;exitDy=0;entryX=0.5;entryY=1;entryDx=0;entryDy=0;" edge="1" parent="1" source="D9jDigD416j0bugAYkW8-126" target="D9jDigD416j0bugAYkW8-119">
          <mxGeometry relative="1" as="geometry">
            <mxPoint x="237" y="-570" as="targetPoint" />
            <mxPoint x="296" y="-558" as="sourcePoint" />
          </mxGeometry>
        </mxCell>
        <mxCell id="D9jDigD416j0bugAYkW8-128" value="&lt;span style=&quot;color: rgb(64, 64, 64); font-family: Inter, system-ui, -apple-system, BlinkMacSystemFont, &amp;quot;Segoe UI&amp;quot;, Roboto, &amp;quot;Noto Sans&amp;quot;, Ubuntu, Cantarell, &amp;quot;Helvetica Neue&amp;quot;, Oxygen, &amp;quot;Open Sans&amp;quot;, sans-serif; font-size: 16.002px; text-align: start; text-wrap-mode: wrap;&quot;&gt;1&lt;/span&gt;&lt;span style=&quot;color: rgb(64, 64, 64); font-family: Inter, system-ui, -apple-system, BlinkMacSystemFont, &amp;quot;Segoe UI&amp;quot;, Roboto, &amp;quot;Noto Sans&amp;quot;, Ubuntu, Cantarell, &amp;quot;Helvetica Neue&amp;quot;, Oxygen, &amp;quot;Open Sans&amp;quot;, sans-serif; font-size: 16.002px; text-align: start; text-wrap-mode: wrap;&quot;&gt;:N&lt;/span&gt;" style="edgeLabel;html=1;align=center;verticalAlign=middle;resizable=0;points=[];" vertex="1" connectable="0" parent="D9jDigD416j0bugAYkW8-127">
          <mxGeometry x="-0.2047" relative="1" as="geometry">
            <mxPoint as="offset" />
          </mxGeometry>
        </mxCell>
        <mxCell id="D9jDigD416j0bugAYkW8-129" value="" style="edgeStyle=orthogonalEdgeStyle;rounded=0;orthogonalLoop=1;jettySize=auto;html=1;exitX=0.75;exitY=0;exitDx=0;exitDy=0;entryX=1;entryY=0.5;entryDx=0;entryDy=0;" edge="1" parent="1" target="D9jDigD416j0bugAYkW8-130" source="D9jDigD416j0bugAYkW8-25">
          <mxGeometry relative="1" as="geometry">
            <mxPoint x="915" y="-191" as="sourcePoint" />
            <mxPoint x="900" y="-610" as="targetPoint" />
            <Array as="points">
              <mxPoint x="915" y="-191" />
              <mxPoint x="915" y="-630" />
            </Array>
          </mxGeometry>
        </mxCell>
        <mxCell id="D9jDigD416j0bugAYkW8-130" value="Handles&lt;span style=&quot;white-space: pre;&quot;&gt;&#x9;&lt;/span&gt;" style="rhombus;whiteSpace=wrap;html=1;rounded=0;" vertex="1" parent="1">
          <mxGeometry x="769" y="-670" width="80" height="80" as="geometry" />
        </mxCell>
        <mxCell id="D9jDigD416j0bugAYkW8-131" style="edgeStyle=orthogonalEdgeStyle;rounded=0;orthogonalLoop=1;jettySize=auto;html=1;exitX=0;exitY=0.5;exitDx=0;exitDy=0;entryX=1;entryY=0.5;entryDx=0;entryDy=0;" edge="1" parent="1" source="D9jDigD416j0bugAYkW8-130" target="D9jDigD416j0bugAYkW8-119">
          <mxGeometry relative="1" as="geometry">
            <mxPoint x="987" y="-780" as="targetPoint" />
            <mxPoint x="1054" y="-738" as="sourcePoint" />
          </mxGeometry>
        </mxCell>
        <mxCell id="D9jDigD416j0bugAYkW8-132" value="&lt;span style=&quot;color: rgb(64, 64, 64); font-family: Inter, system-ui, -apple-system, BlinkMacSystemFont, &amp;quot;Segoe UI&amp;quot;, Roboto, &amp;quot;Noto Sans&amp;quot;, Ubuntu, Cantarell, &amp;quot;Helvetica Neue&amp;quot;, Oxygen, &amp;quot;Open Sans&amp;quot;, sans-serif; font-size: 16.002px; text-align: start; text-wrap-mode: wrap;&quot;&gt;1&lt;/span&gt;&lt;span style=&quot;color: rgb(64, 64, 64); font-family: Inter, system-ui, -apple-system, BlinkMacSystemFont, &amp;quot;Segoe UI&amp;quot;, Roboto, &amp;quot;Noto Sans&amp;quot;, Ubuntu, Cantarell, &amp;quot;Helvetica Neue&amp;quot;, Oxygen, &amp;quot;Open Sans&amp;quot;, sans-serif; font-size: 16.002px; text-align: start; text-wrap-mode: wrap;&quot;&gt;:N&lt;/span&gt;" style="edgeLabel;html=1;align=center;verticalAlign=middle;resizable=0;points=[];" vertex="1" connectable="0" parent="D9jDigD416j0bugAYkW8-131">
          <mxGeometry x="-0.2047" relative="1" as="geometry">
            <mxPoint as="offset" />
          </mxGeometry>
        </mxCell>
        <mxCell id="D9jDigD416j0bugAYkW8-134" value="" style="edgeStyle=orthogonalEdgeStyle;rounded=0;orthogonalLoop=1;jettySize=auto;html=1;exitX=0.75;exitY=1;exitDx=0;exitDy=0;entryX=0.5;entryY=0;entryDx=0;entryDy=0;" edge="1" parent="1" target="D9jDigD416j0bugAYkW8-135" source="D9jDigD416j0bugAYkW8-17">
          <mxGeometry relative="1" as="geometry">
            <mxPoint x="428" y="390" as="sourcePoint" />
            <Array as="points">
              <mxPoint x="189" y="390" />
              <mxPoint x="190" y="420" />
            </Array>
          </mxGeometry>
        </mxCell>
        <mxCell id="D9jDigD416j0bugAYkW8-135" value="Makes" style="rhombus;whiteSpace=wrap;html=1;" vertex="1" parent="1">
          <mxGeometry x="150" y="420" width="80" height="80" as="geometry" />
        </mxCell>
        <mxCell id="D9jDigD416j0bugAYkW8-136" style="edgeStyle=orthogonalEdgeStyle;rounded=0;orthogonalLoop=1;jettySize=auto;html=1;exitX=1;exitY=0.5;exitDx=0;exitDy=0;entryX=0;entryY=0.5;entryDx=0;entryDy=0;" edge="1" parent="1" source="D9jDigD416j0bugAYkW8-135" target="D9jDigD416j0bugAYkW8-138">
          <mxGeometry relative="1" as="geometry">
            <mxPoint x="169" y="591" as="targetPoint" />
            <Array as="points">
              <mxPoint x="375" y="460" />
            </Array>
          </mxGeometry>
        </mxCell>
        <mxCell id="D9jDigD416j0bugAYkW8-137" value="&lt;span style=&quot;color: rgb(64, 64, 64); font-family: Inter, system-ui, -apple-system, BlinkMacSystemFont, &amp;quot;Segoe UI&amp;quot;, Roboto, &amp;quot;Noto Sans&amp;quot;, Ubuntu, Cantarell, &amp;quot;Helvetica Neue&amp;quot;, Oxygen, &amp;quot;Open Sans&amp;quot;, sans-serif; font-size: 16.002px; text-align: start; text-wrap-mode: wrap;&quot;&gt;1&lt;/span&gt;&lt;span style=&quot;color: rgb(64, 64, 64); font-family: Inter, system-ui, -apple-system, BlinkMacSystemFont, &amp;quot;Segoe UI&amp;quot;, Roboto, &amp;quot;Noto Sans&amp;quot;, Ubuntu, Cantarell, &amp;quot;Helvetica Neue&amp;quot;, Oxygen, &amp;quot;Open Sans&amp;quot;, sans-serif; font-size: 16.002px; text-align: start; text-wrap-mode: wrap;&quot;&gt;:N&lt;/span&gt;" style="edgeLabel;html=1;align=center;verticalAlign=middle;resizable=0;points=[];" vertex="1" connectable="0" parent="D9jDigD416j0bugAYkW8-136">
          <mxGeometry x="-0.848" relative="1" as="geometry">
            <mxPoint y="26" as="offset" />
          </mxGeometry>
        </mxCell>
        <mxCell id="D9jDigD416j0bugAYkW8-138" value="Additional Quota Requests" style="whiteSpace=wrap;html=1;" vertex="1" parent="1">
          <mxGeometry x="355" y="430" width="120" height="60" as="geometry" />
        </mxCell>
        <mxCell id="D9jDigD416j0bugAYkW8-139" value="" style="edgeStyle=orthogonalEdgeStyle;rounded=0;orthogonalLoop=1;jettySize=auto;html=1;exitX=0.75;exitY=1;exitDx=0;exitDy=0;entryX=0.5;entryY=0;entryDx=0;entryDy=0;" edge="1" parent="1" target="D9jDigD416j0bugAYkW8-140" source="D9jDigD416j0bugAYkW8-22">
          <mxGeometry relative="1" as="geometry">
            <mxPoint x="167.07" y="-450" as="sourcePoint" />
            <Array as="points">
              <mxPoint x="359" y="80" />
              <mxPoint x="415" y="80" />
            </Array>
          </mxGeometry>
        </mxCell>
        <mxCell id="D9jDigD416j0bugAYkW8-140" value="Makes" style="rhombus;whiteSpace=wrap;html=1;" vertex="1" parent="1">
          <mxGeometry x="375.00000000000006" y="130" width="80" height="80" as="geometry" />
        </mxCell>
        <mxCell id="D9jDigD416j0bugAYkW8-141" style="edgeStyle=orthogonalEdgeStyle;rounded=0;orthogonalLoop=1;jettySize=auto;html=1;exitX=0.5;exitY=1;exitDx=0;exitDy=0;entryX=0.5;entryY=0;entryDx=0;entryDy=0;" edge="1" parent="1" source="D9jDigD416j0bugAYkW8-140" target="D9jDigD416j0bugAYkW8-138">
          <mxGeometry relative="1" as="geometry">
            <mxPoint x="597" y="212" as="targetPoint" />
            <Array as="points">
              <mxPoint x="415" y="400" />
              <mxPoint x="415" y="400" />
            </Array>
          </mxGeometry>
        </mxCell>
        <mxCell id="D9jDigD416j0bugAYkW8-142" value="&lt;span style=&quot;color: rgb(64, 64, 64); font-family: Inter, system-ui, -apple-system, BlinkMacSystemFont, &amp;quot;Segoe UI&amp;quot;, Roboto, &amp;quot;Noto Sans&amp;quot;, Ubuntu, Cantarell, &amp;quot;Helvetica Neue&amp;quot;, Oxygen, &amp;quot;Open Sans&amp;quot;, sans-serif; font-size: 16.002px; text-align: start; text-wrap-mode: wrap;&quot;&gt;1&lt;/span&gt;&lt;span style=&quot;color: rgb(64, 64, 64); font-family: Inter, system-ui, -apple-system, BlinkMacSystemFont, &amp;quot;Segoe UI&amp;quot;, Roboto, &amp;quot;Noto Sans&amp;quot;, Ubuntu, Cantarell, &amp;quot;Helvetica Neue&amp;quot;, Oxygen, &amp;quot;Open Sans&amp;quot;, sans-serif; font-size: 16.002px; text-align: start; text-wrap-mode: wrap;&quot;&gt;:N&lt;/span&gt;" style="edgeLabel;html=1;align=center;verticalAlign=middle;resizable=0;points=[];" vertex="1" connectable="0" parent="D9jDigD416j0bugAYkW8-141">
          <mxGeometry x="-0.848" relative="1" as="geometry">
            <mxPoint y="13" as="offset" />
          </mxGeometry>
        </mxCell>
        <mxCell id="D9jDigD416j0bugAYkW8-143" value="" style="edgeStyle=orthogonalEdgeStyle;rounded=0;orthogonalLoop=1;jettySize=auto;html=1;entryX=1;entryY=0.5;entryDx=0;entryDy=0;exitX=0.5;exitY=1;exitDx=0;exitDy=0;" edge="1" parent="1" target="D9jDigD416j0bugAYkW8-144" source="D9jDigD416j0bugAYkW8-25">
          <mxGeometry relative="1" as="geometry">
            <mxPoint x="660" y="360" as="sourcePoint" />
            <mxPoint x="789.8499999999999" y="685" as="targetPoint" />
            <Array as="points">
              <mxPoint x="887" y="460" />
            </Array>
          </mxGeometry>
        </mxCell>
        <mxCell id="D9jDigD416j0bugAYkW8-144" value="Handes" style="rhombus;whiteSpace=wrap;html=1;" vertex="1" parent="1">
          <mxGeometry x="669" y="435" width="80" height="50" as="geometry" />
        </mxCell>
        <mxCell id="D9jDigD416j0bugAYkW8-145" style="edgeStyle=orthogonalEdgeStyle;rounded=0;orthogonalLoop=1;jettySize=auto;html=1;exitX=0;exitY=0.5;exitDx=0;exitDy=0;entryX=1;entryY=0.5;entryDx=0;entryDy=0;" edge="1" parent="1" source="D9jDigD416j0bugAYkW8-144" target="D9jDigD416j0bugAYkW8-138">
          <mxGeometry relative="1" as="geometry">
            <mxPoint x="710" y="801" as="targetPoint" />
            <Array as="points">
              <mxPoint x="660" y="460" />
              <mxPoint x="660" y="460" />
            </Array>
          </mxGeometry>
        </mxCell>
        <mxCell id="D9jDigD416j0bugAYkW8-146" value="&lt;span style=&quot;color: rgb(64, 64, 64); font-family: Inter, system-ui, -apple-system, BlinkMacSystemFont, &amp;quot;Segoe UI&amp;quot;, Roboto, &amp;quot;Noto Sans&amp;quot;, Ubuntu, Cantarell, &amp;quot;Helvetica Neue&amp;quot;, Oxygen, &amp;quot;Open Sans&amp;quot;, sans-serif; font-size: 16.002px; text-align: start; text-wrap-mode: wrap;&quot;&gt;1&lt;/span&gt;&lt;span style=&quot;color: rgb(64, 64, 64); font-family: Inter, system-ui, -apple-system, BlinkMacSystemFont, &amp;quot;Segoe UI&amp;quot;, Roboto, &amp;quot;Noto Sans&amp;quot;, Ubuntu, Cantarell, &amp;quot;Helvetica Neue&amp;quot;, Oxygen, &amp;quot;Open Sans&amp;quot;, sans-serif; font-size: 16.002px; text-align: start; text-wrap-mode: wrap;&quot;&gt;:N&lt;/span&gt;" style="edgeLabel;html=1;align=center;verticalAlign=middle;resizable=0;points=[];" vertex="1" connectable="0" parent="D9jDigD416j0bugAYkW8-145">
          <mxGeometry x="-0.4961" relative="1" as="geometry">
            <mxPoint y="12" as="offset" />
          </mxGeometry>
        </mxCell>
      </root>
    </mxGraphModel>
  </diagram>
</mxfile>
